<?xml version="1.0" encoding="utf-8"?>
<!-- Generator: Adobe Illustrator 19.0.0, SVG Export Plug-In . SVG Version: 6.00 Build 0)  -->
<svg version="1.1" id="Layer_1" xmlns="http://www.w3.org/2000/svg" xmlns:xlink="http://www.w3.org/1999/xlink" x="0px" y="0px"
	 viewBox="0 0 455.5 125.9" style="enable-background:new 0 0 455.5 125.9;" xml:space="preserve">
<defs>
	<filter id="f1" x="0" y="0">
	  <feGaussianBlur in="SourceGraphic" stdDeviation="15" />
	</filter>
</defs>
<style type="text/css">
	.st0{fill:#FFFFFF;}
</style>
<g id="XMLID_3_">
	<path filter="url(#f1)" id="XMLID_56_" class="st0" d="M819.8,362.7v3.1h-39.7v-3.1c7-0.4,8.7-2.7,8.7-9.5v-51.3c0-6.9-1.7-9.1-8.7-9.5v-3.1h39.8v3.1
		c-5.7,1-6.8,3.6-6.8,9.5v18.5h18.4v-18.5c0-6-1.1-8.5-6.8-9.5v-3.1h39.8v3.1c-7,0.4-8.7,2.7-8.7,9.5v51.3c0,6.9,1.7,9.1,8.7,9.5
		v3.1h-39.7v-3.1c5.7-1,6.9-3.6,6.9-9.5v-28.4h-18.6v28.4C813.2,359.2,814.3,361.6,819.8,362.7z"/>
	<path id="XMLID_53_" class="st0" d="M871.1,339.2c0-17.3,12.4-28.9,31.5-28.9s31.6,11.7,31.6,28.9c0,17.2-12.5,29-31.6,29
		S871.1,356.5,871.1,339.2z M911.4,339.2c0-16.9-0.9-24.8-8.8-24.8c-8,0-8.7,7.9-8.7,24.8s0.7,24.9,8.7,24.9
		C910.5,364.1,911.4,356.1,911.4,339.2z"/>
	<path id="XMLID_51_" class="st0" d="M939.7,365.8v-3.1c0.1,0,0.2,0,0.3,0c4.9,0,6.7-2.3,6.7-7.9v-20.4c0-3-0.3-4.4-3.1-6.3
		l-6.8-4.8c9.3-3.3,18.9-7.9,28.9-13.5v9.2c4.4-6,10.1-8.7,17.9-8.7c7.5,0,13,3,15.5,8.5c4-5.7,9.9-8.5,17.1-8.5
		c11.9,0,17.6,6,17.6,18.3v26.2c0,5.5,1.8,7.9,6.7,7.9c0.1,0,0.2,0,0.3,0v3.1H1013v-36.6c0-7.1-1.3-10.4-6.3-10.4
		c-4.6,0-6,3.4-6,10.4v25.6c0,5.5,1.8,7.9,6.7,7.9c0.1,0,0.2,0,0.3,0v3.1h-34.9v-3.1c0.1,0,0.2,0,0.3,0c4.9,0,6.7-2.3,6.7-7.9v-25.6
		c0-7.1-1.3-10.4-6.3-10.4c-4.6,0-5.9,3.4-5.9,10.4v36.6H939.7z"/>
	<path id="XMLID_48_" class="st0" d="M1071.5,368.2c-8.2,0-15.6-3.4-20.9-9.7c-4.3-5.1-6.4-11.3-6.4-18.4c0-7.2,2-13.5,6.3-19.3
		c4.6-6.2,13.1-10.5,21.3-10.5c13.9,0,23.2,9.1,23.2,23.8h-31.4c0.4,13.3,9.9,22.4,20.6,22.4c4.2,0,7.7-1.4,10.5-4.7v5.1
		C1088.6,364.3,1080.5,368.2,1071.5,368.2z M1068.5,330.1c7.8,0,10.8-0.1,10.8-6.1c0-6.4-2.3-9.7-7-9.7c-6.2,0-8.8,5.1-8.8,15.8
		H1068.5z"/>
</g>
<g id="XMLID_1_">
	<path id="XMLID_2_" class="st0" d="M57.2,123.4v-2c3-0.3,5.1-1.3,6.1-2.8c1-1.5,1.6-4.6,1.6-9.1v-4.1v-39c0-2.9-0.1-5.1-0.4-6.6
		c-0.3-1.5-0.9-2.8-1.7-4c-0.8-1.1-1.8-2-3.1-2.6c-1.3-0.7-2.7-1-4.1-1c-1.9,0-3.8,0.5-5.8,1.4c-2,0.9-4.3,2.5-6.8,4.7v47.2
		c0,2.1,0,3.8,0,5.1c0,1.3,0.1,2.4,0.2,3.3c0.1,0.9,0.2,1.6,0.3,2.1c0.1,0.5,0.3,1.1,0.5,1.6c0.5,1.2,1.3,2.1,2.3,2.7
		c1,0.6,2.4,1,4.4,1.2v2H1v-2c3.2-0.2,5.5-0.6,7-1.1c1.5-0.5,2.8-1.3,3.8-2.5c0.9-1.2,1.5-2.8,1.8-4.9c0.3-2.1,0.5-5.6,0.5-10.8v-67
		c0-4.9-0.2-8.5-0.7-10.8c-0.4-2.3-1.3-4.4-2.5-6.1c-1.2-1.6-2.6-2.8-4.2-3.5c-1.6-0.7-3.8-1.1-6.6-1.2L0,11.8
		c2.3-0.4,4.3-0.8,6-1.2c1.7-0.4,3.4-0.8,5-1.1c1.6-0.4,3.2-0.8,4.9-1.2c1.7-0.4,3.6-0.9,5.8-1.5c2.3-0.7,4.2-1.2,5.9-1.6
		c1.7-0.4,3.3-0.9,4.8-1.4c1.5-0.5,3.1-1,4.7-1.5c1.6-0.5,3.5-1.1,5.7-1.9v55.4c1.5-1.3,2.8-2.4,3.9-3.3c1.1-0.9,2.1-1.6,2.9-2.3
		c0.9-0.7,1.7-1.2,2.5-1.8c0.8-0.5,1.6-1.1,2.6-1.8c3.8-2.5,7.4-4.3,10.7-5.5c3.3-1.1,6.7-1.7,10.2-1.7c6,0,10.5,1.8,13.6,5.5
		c1.5,1.8,2.6,4,3.3,6.6c0.7,2.6,1,6.1,1,10.7v43.2l0.2,4.1c0.1,2.4,0.2,4.1,0.2,5.1c0.1,1,0.4,2,0.9,2.8c0.7,1.2,1.6,2.1,2.9,2.7
		c1.3,0.6,3.1,1,5.6,1.2v2H57.2z"/>
	<path id="XMLID_5_" class="st0" d="M198.2,99.5c-2.3,5.2-5.5,9.8-9.5,13.6c-4,3.9-8.8,6.9-14.3,9.1c-5.5,2.2-11.4,3.3-17.7,3.3
		c-6.4,0-12.4-1.1-17.9-3.3c-5.5-2.2-10.2-5.2-14.3-9.1c-4-3.9-7.2-8.4-9.5-13.6c-2.3-5.2-3.5-10.9-3.5-17c0-6.1,1.2-11.8,3.5-17
		c2.3-5.2,5.5-9.8,9.5-13.6c4-3.9,8.8-6.9,14.3-9.1c5.5-2.2,11.4-3.3,17.9-3.3c6.3,0,12.2,1.1,17.7,3.3c5.5,2.2,10.2,5.2,14.3,9.1
		c4,3.9,7.2,8.4,9.5,13.6c2.3,5.2,3.5,10.9,3.5,17C201.7,88.6,200.5,94.3,198.2,99.5z M169.6,64.2c-0.5-5.4-1.2-9.7-2.1-13
		c-0.9-3.1-2.3-5.4-4.1-7.1c-1.9-1.7-4.1-2.5-6.8-2.5c-2.8,0-5.1,0.8-7,2.5c-1.9,1.7-3.3,4.1-4.1,7.1c-0.9,3.5-1.5,7.9-2,13.2
		c-0.4,5.3-0.7,11.3-0.7,18.1c0,6.8,0.2,12.8,0.7,18.2c0.4,5.4,1.1,9.7,2,13.1c0.8,3.1,2.1,5.4,4.1,7.1c1.9,1.7,4.3,2.5,7,2.5
		c2.6,0,4.9-0.8,6.9-2.5c1.9-1.7,3.3-4.1,4.1-7.1c1.9-7.1,2.8-17.5,2.8-31.3C170.4,75.6,170.1,69.5,169.6,64.2z"/>
	<path id="XMLID_8_" class="st0" d="M316.5,123.4v-2c3-0.3,5.1-1.3,6.1-2.8c1-1.5,1.6-4.6,1.6-9.1v-4.1V68.2c0-3.8-0.1-6.7-0.4-8.7
		c-0.3-2-0.8-3.5-1.6-4.7c-0.7-1.1-1.7-2-3-2.6c-1.4-0.7-2.8-1-4.2-1c-1.9,0-3.7,0.5-5.6,1.4c-1.9,0.9-4,2.5-6.4,4.7v48.2v4.1
		c0,2.3,0.1,4.2,0.3,5.6c0.2,1.5,0.6,2.6,1.1,3.5c0.5,0.9,1.3,1.5,2.3,2c1,0.4,2.3,0.7,3.9,0.8v2h-43.9v-2c1.5-0.1,2.8-0.4,3.8-0.8
		c1-0.4,1.7-1.1,2.3-2c0.5-0.9,0.9-2,1.1-3.5c0.2-1.5,0.3-3.3,0.3-5.6v-4.1V68.2c0-3.7-0.1-6.5-0.4-8.2c-0.3-1.8-0.8-3.4-1.7-4.8
		c-0.7-1.2-1.7-2.1-3-2.8c-1.4-0.7-2.9-1-4.5-1c-1.9,0-3.7,0.4-5.5,1.3c-1.8,0.9-3.8,2.4-6.1,4.6v48.2v4.1c0,2.3,0.1,4.2,0.3,5.6
		c0.2,1.5,0.6,2.6,1.1,3.5c0.5,0.9,1.3,1.5,2.4,2c1,0.4,2.3,0.7,3.8,0.8v2H211v-2c3.2-0.2,5.5-0.6,7-1.1c1.5-0.5,2.8-1.3,3.8-2.5
		c1-1.2,1.6-2.8,1.9-4.9c0.3-2.1,0.4-5.6,0.4-10.7V75.5c0-2.4-0.1-4.5-0.2-6.3c-0.1-1.8-0.3-3.3-0.5-4.6c-0.2-1.3-0.5-2.4-0.9-3.4
		c-0.4-1-0.9-1.9-1.6-2.8c-1.2-1.5-2.6-2.6-4.2-3.3c-1.6-0.7-3.8-1.2-6.6-1.4l-0.2-1.6c1.2-0.2,2.3-0.4,3.2-0.6
		c0.9-0.2,1.7-0.4,2.2-0.7c2.6-0.6,5.1-1.3,7.5-1.9c2.4-0.6,4.8-1.2,7.2-2c2.4-0.7,4.9-1.5,7.5-2.3c2.6-0.8,5.5-1.8,8.7-2.8l6.7-2.3
		v15.5c1-1,1.9-1.9,2.6-2.6c0.8-0.8,1.5-1.4,2.3-2c0.8-0.6,1.6-1.2,2.4-1.8c0.8-0.6,1.8-1.3,3-2c3.8-2.5,7.3-4.3,10.5-5.4
		c3.2-1.1,6.5-1.6,10-1.6c10.8,0,17.2,5.2,19.2,15.5c1.2-1.1,2.2-2,3.1-2.9c0.9-0.8,1.7-1.6,2.4-2.2c0.8-0.7,1.5-1.3,2.2-1.8
		c0.7-0.5,1.5-1.1,2.4-1.6c3.5-2.4,7-4.2,10.5-5.3c3.5-1.1,7-1.7,10.5-1.7c12.5,0,18.8,7.7,18.8,23.1v42.8l0.2,4.1
		c0.1,2.4,0.2,4.1,0.2,5.1c0.1,1,0.4,2,0.9,2.8c0.7,1.2,1.6,2.1,2.9,2.7c1.3,0.6,3.1,1,5.6,1.2v2H316.5z"/>
	<path id="XMLID_10_" class="st0" d="M452.9,98.1c-0.8,1.8-1.5,3.4-2.3,4.8c-0.8,1.4-1.6,2.8-2.5,4.1c-0.9,1.3-2,2.7-3.2,4.2
		c-3.8,4.6-8.4,8.1-13.7,10.5c-5.3,2.5-11.2,3.7-17.6,3.7c-6.1,0-11.8-1.1-17.1-3.2c-5.3-2.1-9.9-5.1-13.7-8.8
		c-3.9-3.8-6.9-8.2-9.1-13.3c-2.2-5.1-3.3-10.7-3.3-16.7c0-6.1,1.1-11.8,3.4-17.2c2.3-5.3,5.4-10,9.5-14c4-4,8.7-7.1,14.1-9.4
		c5.4-2.3,11.2-3.4,17.4-3.4c5.4,0,10.5,0.8,15,2.5c4.6,1.6,8.6,4,12.1,7c3.5,3.1,6.3,6.8,8.6,11.1c2.2,4.4,3.7,9.2,4.3,14.5h-54.1
		c0.1,20.4,9.2,30.5,27.3,30.5c6.9,0,12.7-1.7,17.5-5.1c1.9-1.2,3.3-2.4,4.4-3.7c1.1-1.3,2.5-3.1,4.1-5.6l1.5,0.7
		C454.6,94.1,453.7,96.3,452.9,98.1z M426,67.9c0-1.3,0-2.5-0.1-3.5c-0.1-1-0.1-2-0.2-2.9c-0.1-0.9-0.1-1.9-0.2-3
		c-0.4-5.9-1.5-10.3-3.3-13c-1.7-2.7-4.2-4-7.5-4c-4.6,0-8,2.7-10.4,8c-2.3,5.3-3.5,13.1-3.5,23.2H426C426,70.9,426,69.3,426,67.9z"
		/>
</g>
</svg>
